<svg width="14" height="14" viewBox="0 0 14 14" fill="none" xmlns="http://www.w3.org/2000/svg">
<g clip-path="url(#clip0_991_3577)">
<path fill-rule="evenodd" clip-rule="evenodd" d="M12.1505 11.3044L11.5381 9.62009L13.3029 9.30838C13.7153 9.23547 13.9906 8.84212 13.9177 8.42972C13.8449 8.01725 13.4517 7.74193 13.0392 7.81484L10.6568 8.2357L8.51665 7.00012L10.6568 5.76454L13.0391 6.18535C13.0839 6.19323 13.1282 6.19701 13.172 6.19701C13.5328 6.19701 13.8528 5.93807 13.9177 5.57047C13.9906 5.15804 13.7152 4.7646 13.303 4.69183L11.5381 4.37997L12.1505 2.69584C12.2936 2.30214 12.0905 1.86703 11.6969 1.72392C11.3032 1.5808 10.8682 1.78384 10.7251 2.1775L9.89839 4.45111L7.7584 5.68667V3.2154L9.31391 1.3626C9.58332 1.04201 9.54165 0.563621 9.22076 0.294282C8.89986 0.0249273 8.42167 0.0667073 8.15248 0.387544L7.00005 1.75995L5.84742 0.387487C5.57837 0.0666713 5.09986 0.024965 4.77921 0.294282C4.45833 0.56362 4.41668 1.04202 4.68609 1.36264L6.24171 3.21537V5.68663L4.10161 4.45108L3.27502 2.1775C3.13177 1.78381 2.69648 1.5808 2.30309 1.72389C1.90946 1.867 1.7064 2.30214 1.84952 2.69581L2.46189 4.37994L0.697025 4.6918C0.284735 4.76458 0.00936246 5.15802 0.0822561 5.57045C0.147189 5.93814 0.467124 6.19699 0.82793 6.19699C0.871715 6.19699 0.916052 6.19318 0.960905 6.18531L3.34322 5.76451L5.48335 7.00009L3.34322 8.23567L0.960754 7.81481C0.548244 7.74192 0.155033 8.01729 0.0822533 8.42975C0.00936446 8.84215 0.284712 9.23548 0.697057 9.30838L2.46189 9.62012L1.84951 11.3044C1.70641 11.6979 1.90955 12.1331 2.3032 12.2762C2.38877 12.3074 2.47622 12.322 2.56212 12.322C2.87196 12.322 3.1629 12.1305 3.275 11.8227L4.10158 9.5491L6.24171 8.31355V10.7847L4.6861 12.6375C4.41666 12.9582 4.45843 13.4366 4.77927 13.7058C5.09989 13.9751 5.57842 13.9334 5.8475 13.6127L7.00008 12.2403L8.15251 13.6127C8.30255 13.7913 8.517 13.8835 8.73358 13.8835C8.9057 13.8835 9.07873 13.8251 9.22078 13.7058C9.54162 13.4366 9.58332 12.9582 9.31388 12.6374L7.7584 10.7847V8.31354L9.89839 9.5491L10.7251 11.8227C10.8371 12.1305 11.1277 12.322 11.4378 12.322C11.5238 12.322 11.6112 12.3073 11.6969 12.2762C12.0905 12.133 12.2936 11.6979 12.1505 11.3044Z" fill="#F8F8F8"/>
</g>
<defs>
<clipPath id="clip0_991_3577">
<rect width="14" height="14" fill="white"/>
</clipPath>
</defs>
</svg>
