<svg width="15" height="14" viewBox="0 0 15 14" fill="none" xmlns="http://www.w3.org/2000/svg">
<path d="M14.5 5.83333V14H0.5V5.83333H14.5ZM14.5 4.66667V2.91667C14.5 2.45254 14.3156 2.00742 13.9874 1.67923C13.6592 1.35104 13.2141 1.16667 12.75 1.16667H11V0H9.83333V1.16667H5.16667V0H4V1.16667H2.25C1.78587 1.16667 1.34075 1.35104 1.01256 1.67923C0.684374 2.00742 0.5 2.45254 0.5 2.91667L0.5 4.66667H14.5ZM11 8.16667H9.83333V9.33333H11V8.16667ZM8.08333 8.16667H6.91667V9.33333H8.08333V8.16667ZM5.16667 8.16667H4V9.33333H5.16667V8.16667ZM11 10.5H9.83333V11.6667H11V10.5ZM8.08333 10.5H6.91667V11.6667H8.08333V10.5ZM5.16667 10.5H4V11.6667H5.16667V10.5Z" fill="#A2A2A2"/>
</svg>
