<svg width="70" height="70" viewBox="0 0 70 70" fill="none" xmlns="http://www.w3.org/2000/svg">
<path fill-rule="evenodd" clip-rule="evenodd" d="M54.8534 57.1679C54.2067 57.1679 53.5951 56.7643 53.3578 56.1076L49.4369 45.2525L36.5928 37.7872V52.6964L43.9694 61.5416C44.542 62.2278 44.4509 63.2526 43.7735 63.8247L43.7726 63.8254C43.4729 64.0789 43.1142 64.2 42.7554 64.2C42.301 64.2 41.8551 64.0075 41.5381 63.6274L35.0004 55.7897L28.4613 63.628C27.896 64.3063 26.8973 64.392 26.2274 63.8255L26.2266 63.8248C25.549 63.2526 25.4582 62.2274 26.0306 61.5414L33.4076 52.6964V37.7873L20.5628 45.2525L16.6428 56.1067C16.4051 56.764 15.7918 57.168 15.1463 57.168C14.9687 57.168 14.7878 57.1378 14.6083 57.0719L14.6066 57.0713C13.7841 56.7703 13.345 55.8444 13.6513 54.9965L17.1167 45.4015L7.11803 43.6235C6.26031 43.4709 5.66898 42.6391 5.82518 41.7494C5.98077 40.8618 6.81326 40.2895 7.66718 40.4414L18.9749 42.4523L31.7971 35.0001L18.975 27.5478L7.66924 29.5582C7.57149 29.5754 7.47812 29.5832 7.38812 29.5832C6.64183 29.5832 5.96347 29.039 5.8251 28.2503C5.66881 27.36 6.26114 26.5288 7.11775 26.3766L17.1167 24.5979L13.6513 15.0038C13.3447 14.1547 13.7845 13.2292 14.6065 12.9284C15.4214 12.63 16.3376 13.0493 16.6428 13.8929L20.5629 24.7476L33.4076 32.2128V17.303L26.0301 8.45776C25.4581 7.77245 25.5489 6.74727 26.2271 6.17426C26.8974 5.60749 27.8957 5.69344 28.4607 6.37161L35.0002 14.2105L41.5385 6.37217C42.1042 5.69336 43.1017 5.60729 43.7732 6.17464C44.4514 6.74776 44.5411 7.77315 43.9693 8.45819L36.5928 17.3032V32.2131L49.4369 24.7477L53.3578 13.8924C53.6623 13.0492 54.5771 12.6298 55.3936 12.9286C56.2155 13.2294 56.655 14.1548 56.3484 15.004L52.8831 24.598L62.8824 26.3768C63.739 26.529 64.3309 27.3603 64.1746 28.2505C64.0363 29.0391 63.3577 29.5833 62.6117 29.5833C62.5208 29.5833 62.4271 29.5754 62.3308 29.5584L51.0249 27.548L38.2028 35.0002L51.0249 42.4524L62.3328 40.4415C63.1866 40.2896 64.019 40.862 64.1747 41.7498C64.3309 42.6395 63.7394 43.4709 62.8817 43.6235L52.8831 45.4013L56.3485 54.9964C56.6549 55.8447 56.2158 56.7701 55.3936 57.071C55.2111 57.1378 55.0298 57.1679 54.8534 57.1679Z" fill="#F8F8F8"/>
</svg>
