<svg width="24" height="25" viewBox="0 0 24 25" fill="none" xmlns="http://www.w3.org/2000/svg">
<g clip-path="url(#clip0_98_1244)">
<path d="M23.8375 12.9947C24.0628 12.6861 24.053 12.2648 23.813 11.966C20.1831 7.50339 16.2642 5.24023 12.1592 5.24023C5.19827 5.24023 0.363346 11.726 0.162503 12.0003C-0.0628328 12.3089 -0.0530355 12.7302 0.186996 13.029C3.81197 17.4966 7.73085 19.7597 11.8359 19.7597C18.7968 19.7597 23.6317 13.274 23.8375 12.9947ZM11.8359 18.0795C8.41666 18.0795 5.08561 16.1984 1.9211 12.4951C3.16045 11.0304 7.09893 6.92046 12.1592 6.92046C15.5784 6.92046 18.9095 8.80152 22.074 12.5049C20.8346 13.9696 16.8962 18.0795 11.8359 18.0795Z" fill="#121212"/>
<path d="M11.9972 8.2334C9.64583 8.2334 7.73047 10.1488 7.73047 12.5001C7.73047 14.8514 9.64583 16.7668 11.9972 16.7668C14.3485 16.7668 16.2638 14.8514 16.2638 12.5001C16.2638 10.1488 14.3485 8.2334 11.9972 8.2334ZM11.9972 15.0866C10.5717 15.0866 9.41069 13.9256 9.41069 12.5001C9.41069 11.0746 10.5717 9.91362 11.9972 9.91362C13.4227 9.91362 14.5836 11.0746 14.5836 12.5001C14.5836 13.9256 13.4227 15.0866 11.9972 15.0866Z" fill="#121212"/>
</g>
<defs>
<clipPath id="clip0_98_1244">
<rect width="24" height="24" fill="white" transform="translate(0 0.5)"/>
</clipPath>
</defs>
</svg>
