<svg width="70" height="70" viewBox="0 0 70 70" fill="none" xmlns="http://www.w3.org/2000/svg">
<g clip-path="url(#clip0_122_1066)">
<path fill-rule="evenodd" clip-rule="evenodd" d="M41 42.5V49.5C41 52.5376 38.5376 55 35.5 55C32.4624 55 30 52.5376 30 49.5V42.5C30 39.4624 32.4624 37 35.5 37C38.5376 37 41 39.4624 41 42.5ZM35.5 40C34.1193 40 33 41.1193 33 42.5V49.5C33 50.8807 34.1193 52 35.5 52C36.8807 52 38 50.8807 38 49.5V42.5C38 41.1193 36.8807 40 35.5 40Z" fill="white"/>
<path fill-rule="evenodd" clip-rule="evenodd" d="M57.3334 27.0817H13C10.7909 27.0817 9 28.8725 9 31.0817V63.0001C9 65.2092 10.7909 67.0001 13 67.0001H57.3334C59.5425 67.0001 61.3334 65.2093 61.3334 63.0001V31.0817C61.3334 28.8725 59.5425 27.0817 57.3334 27.0817ZM13 24.0817C9.13401 24.0817 6 27.2157 6 31.0817V63.0001C6 66.8661 9.13401 70.0001 13 70.0001H57.3334C61.1994 70.0001 64.3334 66.8661 64.3334 63.0001V31.0817C64.3334 27.2157 61.1994 24.0817 57.3334 24.0817H13Z" fill="white"/>
<path fill-rule="evenodd" clip-rule="evenodd" d="M20 20H23V10C23 6.13401 26.134 3 30 3H40C43.866 3 47 6.13401 47 10V20H50V10C50 4.47715 45.5228 0 40 0H30C24.4772 0 20 4.47715 20 10V20Z" fill="white"/>
</g>
<defs>
<clipPath id="clip0_122_1066">
<rect width="70" height="70" fill="white"/>
</clipPath>
</defs>
</svg>
