<svg width="30" height="29" viewBox="0 0 30 29" fill="none" xmlns="http://www.w3.org/2000/svg">
<rect x="16" y="3" width="18" height="2" transform="rotate(90 16 3)" fill="#121212"/>
<path fill-rule="evenodd" clip-rule="evenodd" d="M14.9997 1.99998L14.9997 1.99994L13.5809 3.40957L13.581 3.40962L9.32467 7.63847L10.7434 9.04811L14.9997 4.81925L19.256 9.04811L20.6748 7.63848L16.4185 3.40962L16.4186 3.40957L14.9998 1.99994L14.9997 1.99998Z" fill="#121212"/>
<mask id="path-3-inside-1_8_21" fill="white">
<path d="M3 11H27V28H3V11Z"/>
</mask>
<path d="M27 28V30H29V28H27ZM3 28H1V30H3V28ZM25 11V28H29V11H25ZM27 26H3V30H27V26ZM5 28V11H1V28H5Z" fill="#121212" mask="url(#path-3-inside-1_8_21)"/>
</svg>
