<svg width="30" height="29" viewBox="0 0 30 29" fill="none" xmlns="http://www.w3.org/2000/svg">
<rect x="16" y="3.00012" width="18" height="2" transform="rotate(90 16 3.00012)" fill="#F8F8F8"/>
<path fill-rule="evenodd" clip-rule="evenodd" d="M14.9997 2.00005L14.9997 2L13.5809 3.40963L13.581 3.40968L9.32467 7.63854L10.7434 9.04817L14.9997 4.81931L19.256 9.04817L20.6748 7.63854L16.4185 3.40968L16.4186 3.40963L14.9998 2L14.9997 2.00005Z" fill="#F8F8F8"/>
<mask id="path-3-inside-1_53_702" fill="white">
<path d="M3 11.0001H27V28.0001H3V11.0001Z"/>
</mask>
<path d="M27 28.0001V30.0001H29V28.0001H27ZM3 28.0001H1V30.0001H3V28.0001ZM25 11.0001V28.0001H29V11.0001H25ZM27 26.0001H3V30.0001H27V26.0001ZM5 28.0001V11.0001H1V28.0001H5Z" fill="#F8F8F8" mask="url(#path-3-inside-1_53_702)"/>
</svg>
